<svg xmlns="http://www.w3.org/2000/svg" xmlns:xlink="http://www.w3.org/1999/xlink" version="1.1" width="408" height="408" style="enable-background:new 0 0 408 408;" xml:space="preserve"><rect id="backgroundrect" width="100%" height="100%" x="0" y="0" fill="none" stroke="none"/>
















<g class="currentLayer" style=""><title>Layer 1</title><g id="svg_1" class="selected">
	<g id="more-vert">
		<path d="M201.5624989271164,143.6249978542328 c15.159374409914017,0 27.562498927116394,-12.403124517202377 27.562498927116394,-27.562498927116394 S216.72187333703042,88.5 201.5624989271164,88.5 s-27.562498927116394,12.403124517202377 -27.562498927116394,27.562498927116394 S186.40312451720237,143.6249978542328 201.5624989271164,143.6249978542328 zM201.5624989271164,171.18749678134918 c-15.159374409914017,0 -27.562498927116394,12.403124517202377 -27.562498927116394,27.562498927116394 s12.403124517202377,27.562498927116394 27.562498927116394,27.562498927116394 s27.562498927116394,-12.403124517202377 27.562498927116394,-27.562498927116394 S216.72187333703042,171.18749678134918 201.5624989271164,171.18749678134918 zM201.5624989271164,253.87499356269836 c-15.159374409914017,0 -27.562498927116394,12.403124517202377 -27.562498927116394,27.562498927116394 s12.403124517202377,27.562498927116394 27.562498927116394,27.562498927116394 s27.562498927116394,-12.403124517202377 27.562498927116394,-27.562498927116394 S216.72187333703042,253.87499356269836 201.5624989271164,253.87499356269836 z" id="svg_2"/>
	</g>
</g><g id="svg_3">
</g><g id="svg_4">
</g><g id="svg_5">
</g><g id="svg_6">
</g><g id="svg_7">
</g><g id="svg_8">
</g><g id="svg_9">
</g><g id="svg_10">
</g><g id="svg_11">
</g><g id="svg_12">
</g><g id="svg_13">
</g><g id="svg_14">
</g><g id="svg_15">
</g><g id="svg_16">
</g><g id="svg_17">
</g></g></svg>